<svg xmlns="http://www.w3.org/2000/svg" width="60" viewBox="0 0 60 30" height="30" version="1.0"><defs><clipPath id="a"><path d="M 1 0 L 59 0 L 59 29 L 1 29 Z M 1 0"/></clipPath><clipPath id="b"><path d="M 6.207031 -8.84375 L 58.539062 6.132812 L 49.355469 38.230469 L -2.980469 23.257812 Z M 6.207031 -8.84375"/></clipPath><clipPath id="c"><path d="M 49.472656 38.394531 L -2.859375 23.421875 L 6.324219 -8.679688 L 58.660156 6.296875 Z M 49.472656 38.394531"/></clipPath></defs><g clip-path="url(#a)"><g clip-path="url(#b)"><g clip-path="url(#c)"><path fill="#111" d="M 15.46875 28.015625 C 15.703125 27.628906 16.253906 27.230469 15.824219 26.640625 C 15.859375 26.546875 15.878906 26.457031 15.898438 26.363281 C 16.003906 26.125 16.203125 25.988281 16.523438 25.980469 C 16.953125 26.027344 17.320312 25.945312 17.535156 25.523438 C 18.722656 24.089844 18.75 22.691406 17.699219 21.105469 C 16.722656 19.628906 15.976562 17.996094 15.113281 16.410156 C 15.328125 16.34375 15.386719 16.304688 15.433594 16.316406 C 15.867188 16.441406 16.300781 16.558594 16.730469 16.703125 C 20.695312 18.03125 24.792969 18.601562 28.957031 18.570312 C 37.609375 18.515625 45.675781 16.089844 53.414062 12.410156 C 54.292969 11.992188 55.371094 11.640625 55.570312 10.394531 C 55.601562 10.21875 55.941406 10.058594 56.167969 9.953125 C 56.929688 9.601562 57.273438 8.902344 57.636719 8.21875 C 57.914062 7.695312 58.324219 7.058594 57.972656 6.589844 C 57.5 5.953125 56.78125 6.414062 56.195312 6.644531 C 50.457031 8.867188 44.589844 10.628906 38.480469 11.507812 C 35.398438 11.632812 32.324219 11.765625 29.265625 12.1875 C 27.578125 11.933594 25.890625 11.675781 24.207031 11.421875 C 23.957031 11.351562 23.71875 11.277344 23.472656 11.207031 C 22.859375 10.972656 22.253906 10.742188 21.640625 10.511719 C 20.316406 10.257812 19.085938 9.898438 18.097656 8.816406 C 17.621094 8.296875 16.742188 8.144531 16.039062 7.832031 C 16.035156 7.824219 16.039062 7.820312 16.035156 7.816406 C 16 7.726562 15.984375 7.628906 15.980469 7.539062 C 15.710938 7.472656 15.582031 7.28125 15.535156 7.015625 C 16.238281 6.929688 16.949219 6.859375 17.648438 6.75 C 20.878906 6.238281 20.875 6.234375 23.015625 4.007812 C 23.671875 3.328125 24.257812 1.777344 23.941406 1.394531 C 23.347656 0.671875 22.492188 0.957031 21.75 0.988281 C 17.410156 1.171875 13.09375 1.558594 8.785156 2.113281 C 7.445312 2.289062 6.25 2.585938 5.097656 3.5 C 4.070312 4.3125 3.535156 5.246094 2.933594 6.320312 C 1.21875 9.378906 1.144531 9.703125 3.257812 12.292969 C 6.785156 16.613281 9.96875 21.179688 12.949219 25.890625 C 13.398438 26.601562 13.871094 27.300781 14.355469 27.988281 C 14.703125 28.457031 15.1875 28.484375 15.46875 28.015625 Z M 34.554688 13.199219 C 34.546875 13.195312 34.535156 13.199219 34.523438 13.195312 C 34.554688 13.1875 34.582031 13.1875 34.609375 13.179688 C 34.585938 13.1875 34.5625 13.191406 34.554688 13.199219 Z M 34.554688 13.199219"/></g></g></g></svg>