<svg xmlns="http://www.w3.org/2000/svg" width="375" viewBox="0 0 375 375" height="375" version="1.0"><defs><clipPath id="a"><path d="M 0 0 L 22.5 0 L 22.5 22.5 L 0 22.5 Z M 0 0"/></clipPath></defs><g clip-path="url(#a)"><path fill="#111" d="M 11.25 0 C 5.039062 0 0 5.039062 0 11.25 C 0 17.460938 5.039062 22.5 11.25 22.5 C 17.460938 22.5 22.5 17.460938 22.5 11.25 C 22.5 5.039062 17.460938 0 11.25 0 Z M 7.027344 5.066406 C 7.816406 5.066406 8.34375 5.589844 8.34375 6.292969 C 8.34375 6.992188 7.816406 7.519531 6.941406 7.519531 C 6.152344 7.519531 5.625 6.992188 5.625 6.292969 C 5.625 5.589844 6.152344 5.066406 7.027344 5.066406 Z M 8.4375 15.9375 L 5.625 15.9375 L 5.625 8.4375 L 8.4375 8.4375 Z M 17.8125 15.9375 L 15.164062 15.9375 L 15.164062 11.839844 C 15.164062 10.707031 14.460938 10.445312 14.195312 10.445312 C 13.929688 10.445312 13.046875 10.617188 13.046875 11.839844 C 13.046875 12.011719 13.046875 15.9375 13.046875 15.9375 L 10.3125 15.9375 L 10.3125 8.4375 L 13.046875 8.4375 L 13.046875 9.484375 C 13.402344 8.875 14.105469 8.4375 15.429688 8.4375 C 16.753906 8.4375 17.8125 9.484375 17.8125 11.839844 Z M 17.8125 15.9375"/></g></svg>