<svg xmlns="http://www.w3.org/2000/svg" viewBox="0 0 375 375" version="1.0"><path d="M 375 0 L 0 0 L 0 375 L 375 375 Z M 141.457031 131.292969 L 118.207031 131.292969 L 118.207031 183.625 L 141.457031 183.625 C 156.957031 183.625 160.832031 172 160.832031 158.4375 C 160.855469 144.855469 155.042969 131.292969 141.457031 131.292969 Z M 141.457031 210.75 L 118.207031 210.75 L 118.207031 270.832031 L 83.332031 270.832031 L 83.332031 104.167969 L 139.542969 104.167969 C 188 104.167969 193.8125 148.75 193.8125 158.4375 C 193.792969 197.1875 166.667969 210.75 141.457031 210.75 Z M 288.230469 179.167969 C 286.6875 179 278.375 178.1875 276.75 178.1875 C 263.480469 178.1875 259.207031 186.5625 257.582031 190.644531 L 257.582031 270.832031 L 222.917969 270.832031 L 222.917969 145.832031 L 255.5 145.832031 L 256.480469 160.125 C 259.082031 154.832031 266.042969 143.394531 279.0625 143.394531 C 284.769531 143.394531 287.4375 144.5 288.582031 144.980469 Z M 288.230469 179.167969"/></svg>
