<svg xmlns="http://www.w3.org/2000/svg" viewBox="0 0 30 30" version="1.0"><defs><clipPath id="a"><path d="M 0.484375 0 L 29.515625 0 L 29.515625 29.03125 L 0.484375 29.03125 Z M 0.484375 0"/></clipPath></defs><g clip-path="url(#a)"><path d="M 27.097656 0 L 5.804688 0 C 4.472656 0 3.386719 1.085938 3.386719 2.417969 L 3.386719 12.097656 L 1.933594 12.097656 C 1.136719 12.097656 0.484375 12.75 0.484375 13.546875 L 0.484375 27.582031 C 0.484375 28.382812 1.136719 29.03125 1.933594 29.03125 L 12.097656 29.03125 C 12.898438 29.03125 13.546875 28.382812 13.546875 27.582031 L 13.546875 24.675781 L 15 24.675781 L 15 27.582031 C 15 28.382812 15.652344 29.03125 16.453125 29.03125 L 28.066406 29.03125 C 28.863281 29.03125 29.515625 28.382812 29.515625 27.582031 L 29.515625 22.257812 C 29.515625 21.457031 28.863281 20.804688 28.066406 20.804688 L 22.125 20.804688 L 21.476562 18.871094 L 27.097656 18.871094 C 28.429688 18.871094 29.515625 17.785156 29.515625 16.453125 L 29.515625 2.417969 C 29.515625 1.085938 28.429688 0 27.097656 0 Z M 12.582031 27.582031 C 12.582031 27.847656 12.363281 28.066406 12.097656 28.066406 L 1.933594 28.066406 C 1.667969 28.066406 1.453125 27.847656 1.453125 27.582031 L 1.453125 26.613281 L 12.582031 26.613281 Z M 12.582031 25.644531 L 1.453125 25.644531 L 1.453125 15.484375 L 12.582031 15.484375 Z M 12.582031 14.515625 L 1.453125 14.515625 L 1.453125 13.546875 C 1.453125 13.28125 1.667969 13.066406 1.933594 13.066406 L 12.097656 13.066406 C 12.363281 13.066406 12.582031 13.28125 12.582031 13.546875 Z M 15 23.710938 L 13.546875 23.710938 L 13.546875 22.742188 L 15 22.742188 Z M 15.089844 21.773438 L 13.546875 21.773438 L 13.546875 18.871094 L 20.457031 18.871094 L 21.101562 20.804688 L 16.453125 20.804688 C 15.820312 20.804688 15.289062 21.210938 15.089844 21.773438 Z M 16.933594 28.066406 L 16.453125 28.066406 C 16.183594 28.066406 15.96875 27.847656 15.96875 27.582031 L 15.96875 22.257812 C 15.96875 21.992188 16.183594 21.773438 16.453125 21.773438 L 16.933594 21.773438 Z M 27.582031 21.773438 L 28.066406 21.773438 C 28.332031 21.773438 28.546875 21.992188 28.546875 22.257812 L 28.546875 27.582031 C 28.546875 27.847656 28.332031 28.066406 28.066406 28.066406 L 27.582031 28.066406 Z M 26.613281 21.773438 L 26.613281 28.066406 L 17.902344 28.066406 L 17.902344 21.773438 Z M 28.546875 16.453125 C 28.546875 17.25 27.898438 17.902344 27.097656 17.902344 L 13.546875 17.902344 L 13.546875 15.484375 L 28.546875 15.484375 Z M 28.546875 14.515625 L 13.546875 14.515625 L 13.546875 13.546875 C 13.546875 12.75 12.898438 12.097656 12.097656 12.097656 L 4.355469 12.097656 L 4.355469 2.417969 C 4.355469 1.617188 5.007812 0.96875 5.804688 0.96875 L 27.097656 0.96875 C 27.898438 0.96875 28.546875 1.617188 28.546875 2.417969 Z M 28.546875 14.515625"/></g><path d="M 10.785156 9.820312 L 16.59375 4.011719 L 17.277344 4.695312 L 11.472656 10.503906 Z M 10.785156 9.820312"/><path d="M 16.59375 9.820312 L 22.398438 4.011719 L 23.085938 4.695312 L 17.277344 10.503906 Z M 16.59375 9.820312"/><path d="M 3.046875 21.433594 L 6.914062 17.5625 L 7.601562 18.246094 L 3.730469 22.117188 Z M 3.046875 21.433594"/><path d="M 5.949219 22.398438 L 9.820312 18.527344 L 10.503906 19.214844 L 6.632812 23.085938 Z M 5.949219 22.398438"/><path d="M 19.011719 25.785156 L 21.914062 22.882812 L 22.601562 23.566406 L 19.695312 26.472656 Z M 19.011719 25.785156"/><path d="M 21.914062 25.785156 L 24.820312 22.882812 L 25.503906 23.566406 L 22.601562 26.472656 Z M 21.914062 25.785156"/><path d="M 26.613281 12.582031 L 27.582031 12.582031 L 27.582031 13.546875 L 26.613281 13.546875 Z M 26.613281 12.582031"/><path d="M 24.675781 12.582031 L 25.644531 12.582031 L 25.644531 13.546875 L 24.675781 13.546875 Z M 24.675781 12.582031"/><path d="M 22.742188 12.582031 L 23.710938 12.582031 L 23.710938 13.546875 L 22.742188 13.546875 Z M 22.742188 12.582031"/></svg>
