<svg xmlns="http://www.w3.org/2000/svg" width="375" viewBox="0 0 375 375" height="375" version="1.0"><defs><clipPath id="a"><path d="M 0 0 L 22.5 0 L 22.5 22.5 L 0 22.5 Z M 0 0"/></clipPath></defs><g clip-path="url(#a)"><path fill="#111" d="M 22.5 11.25 C 22.5 17.464844 17.464844 22.5 11.25 22.5 C 5.035156 22.5 0 17.464844 0 11.25 C 0 5.035156 5.035156 0 11.25 0 C 17.464844 0 22.5 5.035156 22.5 11.25 Z M 9.191406 17.183594 C 14.179688 17.183594 16.910156 13.050781 16.910156 9.46875 C 16.910156 9.347656 16.910156 9.230469 16.902344 9.117188 C 17.433594 8.734375 17.894531 8.257812 18.257812 7.710938 C 17.773438 7.925781 17.25 8.070312 16.699219 8.140625 C 17.261719 7.800781 17.691406 7.273438 17.894531 6.636719 C 17.371094 6.945312 16.789062 7.171875 16.171875 7.296875 C 15.675781 6.765625 14.972656 6.441406 14.191406 6.441406 C 12.695312 6.441406 11.480469 7.65625 11.480469 9.152344 C 11.480469 9.367188 11.503906 9.574219 11.554688 9.769531 C 9.296875 9.65625 7.300781 8.578125 5.960938 6.9375 C 5.730469 7.335938 5.597656 7.800781 5.597656 8.296875 C 5.597656 9.234375 6.074219 10.070312 6.804688 10.550781 C 6.363281 10.542969 5.945312 10.417969 5.578125 10.214844 C 5.578125 10.226562 5.578125 10.238281 5.578125 10.25 C 5.578125 11.566406 6.515625 12.65625 7.757812 12.910156 C 7.53125 12.972656 7.289062 13.003906 7.042969 13.003906 C 6.867188 13.003906 6.699219 12.988281 6.53125 12.953125 C 6.875 14.035156 7.875 14.816406 9.0625 14.839844 C 8.132812 15.5625 6.964844 15.996094 5.691406 15.996094 C 5.472656 15.996094 5.257812 15.984375 5.046875 15.957031 C 6.234375 16.734375 7.660156 17.183594 9.191406 17.183594"/></g></svg>