<?xml version="1.0" ?><svg enable-background="new 0 0 32 32" version="1.1" viewBox="0 0 32 32" xml:space="preserve" xmlns="http://www.w3.org/2000/svg" xmlns:xlink="http://www.w3.org/1999/xlink"><g id="_x33_0"/><g id="_x32_9"/><g id="_x32_8"/><g id="_x32_7"/><g id="_x32_6"/><g id="_x32_5"/><g id="_x32_4"/><g id="_x32_3"/><g id="_x32_2"/><g id="_x32_1"/><g id="_x32_0"/><g id="_x31_8"/><g id="_x31_7"/><g id="_x31_6"/><g id="_x31_5"/><g id="_x31_4"/><g id="_x31_3"/><g id="_x31_2"/><g id="_x31_1"/><g id="_x31_0"><path d="M27.515,6.743l-6-3.6c-0.027-0.016-0.057-0.024-0.086-0.037c-0.397-0.238-0.91-0.195-1.239,0.157l-8.419,9.021l-4.64-4.254   c-0.306-0.28-0.754-0.341-1.123-0.157L3.597,9.078C3.314,9.219,3.115,9.484,3.06,9.795s0.038,0.629,0.253,0.859L8.302,16   l-4.989,5.346c-0.215,0.23-0.309,0.549-0.253,0.859s0.255,0.576,0.537,0.717l2.411,1.206c0.142,0.071,0.295,0.105,0.447,0.105   c0.229,0,0.457-0.079,0.641-0.232l4.879-4.066l8.215,8.802c0.197,0.211,0.464,0.318,0.731,0.318c0.183,0,0.359-0.067,0.52-0.167   c0.024-0.012,0.05-0.017,0.073-0.031l6-3.6C27.815,25.077,28,24.751,28,24.4V7.6C28,7.249,27.815,6.923,27.515,6.743z    M6.317,22.046l-0.629-0.314l3.981-4.266l0.938,1.005L6.317,22.046z M20,25.602L5.688,10.268l0.599-0.299L20,22.54V25.602z    M20,19.826l-3.759-3.446L20,13.248V19.826z M20,10.644l-5.247,4.372l-1.507-1.382L20,6.398V10.644z M26,23.833l-4,2.4V5.766l4,2.4   V23.833z"/></g><g id="_x39_"/><g id="_x38_"/><g id="_x37_"/><g id="_x36_"/><g id="_x35_"/><g id="_x34_"/><g id="_x33_"/><g id="_x32_"/><g id="_x31_"/><g id="Guides"/></svg>