<svg xmlns="http://www.w3.org/2000/svg" width="30" viewBox="0 0 30 30" height="30" version="1.0"><defs><clipPath id="a"><path d="M 2 0.0742188 L 27.917969 0.0742188 L 27.917969 29.03125 L 2 29.03125 Z M 2 0.0742188"/></clipPath></defs><g clip-path="url(#a)"><path d="M 5.027344 26.1875 L 2.75 0.582031 L 27.828125 0.582031 L 25.554688 26.1875 L 15.289062 29.03125 Z M 8.378906 16.839844 L 8.816406 21.777344 L 15.289062 23.574219 L 21.722656 21.796875 L 22.585938 12.15625 L 11.816406 12.15625 L 12.242188 7.246094 L 15.289062 7.132812 L 15.859375 7.132812 L 19.070312 7.246094 L 19.363281 10.570312 L 22.515625 10.570312 L 21.914062 3.851562 L 9.4375 3.851562 L 8.421875 15.285156 L 19.121094 15.285156 L 18.753906 19.347656 L 15.289062 20.304688 L 11.792969 19.359375 L 11.53125 16.839844 Z M 8.378906 16.839844"/></g></svg>