<?xml version="1.0" ?><!DOCTYPE svg  PUBLIC '-//W3C//DTD SVG 1.1//EN'  'http://www.w3.org/Graphics/SVG/1.1/DTD/svg11.dtd'><svg style="enable-background:new 0 0 512 512;" version="1.1" viewBox="0 0 512 512" xml:space="preserve" xmlns="http://www.w3.org/2000/svg" xmlns:xlink="http://www.w3.org/1999/xlink"><g id="_x32_2_x2C__Lightroom_x2C__Adobe"><path d="M0,0v512h512V0H0z M263.725,349.935l-4.971,31.476c-0.664,2.314-1.66,2.59-3.314,2.59H127.821   c-2.646,0-3.821-0.981-3.821-3.679v-249.97c0-1.926,1.175-3.351,3.158-3.351h35.141c1.656,0,2.702,1.037,2.702,2.963V347h96.732   C263.725,347,264.052,348.008,263.725,349.935z M388,227.152c0,1.926-1.165,2.698-3.24,2.698   c-19.797-0.772-29.76-1.393-43.76,4.399v147.4c0,2.313-0.271,3.351-2.347,3.351h-36.459c-2.086,0-3.194-1.037-3.194-3.351V251.778   c0-16.958-0.482-29.759-1.52-42.477c-0.348-1.543,0.538-2.314,2.277-2.314c0,0,33.6-12.512,81.15-15.07   c1.393-0.075,3.356,0,4.749,0.384c1.739,0.388,2.343,0.771,2.343,3.857V227.152z"/></g><g id="Layer_1"/></svg>
