<svg fill="#000000" xmlns="http://www.w3.org/2000/svg"  viewBox="0 0 50 50"><path d="M 0 13.019531 L 8 38.980469 L 13.089844 22.980469 L 18 38.980469 L 25.367188 16.015625 L 31.625 16.015625 L 26 24.46875 L 26 26 L 27.308594 26 C 32.457031 26 33 29.140625 33 30.691406 C 33 35.234375 29.980469 35.984375 29.0625 35.984375 C 28.191406 35.984375 27.433594 35.511719 26.792969 34.949219 C 26.148438 34.386719 25.628906 33.617188 25.234375 32.640625 L 22.550781 33.722656 C 23.097656 35.335938 23.9375 36.617188 25.074219 37.5625 C 26.207031 38.507813 27.535156 38.980469 29.0625 38.980469 C 31.09375 38.980469 32.746094 38.183594 34.023438 36.59375 C 35.300781 35 35.9375 33.035156 35.9375 30.695313 C 35.9375 28.371094 34.875 24.128906 30 23.261719 L 36 14.730469 L 36 13.019531 L 22.746094 13.019531 L 18 28.875 L 13.253906 13.019531 L 9.820313 13.019531 L 11.390625 18.296875 L 8.179688 28.875 L 3.4375 13.019531 Z M 49 13.019531 L 47.3125 16.414063 C 47.3125 16.414063 46.480469 14.914063 45.65625 14.230469 C 44.875 13.578125 43.859375 12.976563 42.574219 13.105469 C 41.332031 13.230469 39.933594 14.292969 38.988281 16.066406 C 37.921875 18.082031 37.554688 20.125 37.546875 22.378906 C 37.539063 25.535156 38.734375 27.691406 38.734375 27.691406 C 38.734375 27.691406 38.460938 26.6875 38.503906 24.992188 C 38.535156 23.933594 38.542969 22.785156 39.359375 20.40625 C 40.046875 18.417969 41.617188 16.804688 43.003906 16.527344 C 44.082031 16.308594 44.769531 16.46875 45.828125 17.191406 C 47.085938 18.054688 48 19.613281 48 19.613281 L 50 15.941406 Z M 36.332031 31.347656 C 36.332031 31.347656 36.820313 32.878906 37.125 33.53125 C 37.296875 33.90625 37.835938 35.050781 38.597656 36.046875 C 39.308594 36.976563 40.6875 38.578125 42.785156 38.9375 C 44.886719 39.300781 46.328125 38.382813 46.6875 38.160156 C 47.042969 37.9375 47.796875 37.324219 48.269531 36.828125 C 48.769531 36.308594 49.238281 35.648438 49.5 35.253906 C 49.6875 34.964844 50 34.378906 50 34.378906 L 49.5 31.832031 C 49.5 31.832031 48.628906 33.347656 48.085938 33.933594 C 47.542969 34.519531 46.570313 35.546875 45.375 36.0625 C 44.175781 36.574219 43.542969 36.671875 42.359375 36.5625 C 41.175781 36.449219 40.074219 35.78125 39.6875 35.503906 C 39.304688 35.226563 38.320313 34.40625 37.761719 33.640625 C 37.203125 32.875 36.332031 31.347656 36.332031 31.347656 Z"/></svg>
